<svg width="40" height="40" viewBox="0 0 40 40" fill="none" xmlns="http://www.w3.org/2000/svg">
<g id="Frame">
<path id="Vector" fill-rule="evenodd" clip-rule="evenodd" d="M3.75 22.5C3.75 18.8533 5.19866 15.3559 7.77728 12.7773C10.3559 10.1987 13.8533 8.75 17.5 8.75C17.8315 8.75 18.1495 8.8817 18.3839 9.11612C18.6183 9.35054 18.75 9.66848 18.75 10V21.25H30C30.3315 21.25 30.6495 21.3817 30.8839 21.6161C31.1183 21.8505 31.25 22.1685 31.25 22.5C31.25 26.1467 29.8013 29.6441 27.2227 32.2227C24.6441 34.8013 21.1467 36.25 17.5 36.25C13.8533 36.25 10.3559 34.8013 7.77728 32.2227C5.19866 29.6441 3.75 26.1467 3.75 22.5Z" fill="#43A4FF"/>
<path id="Vector_2" fill-rule="evenodd" clip-rule="evenodd" d="M21.25 5C21.25 4.66848 21.3817 4.35054 21.6161 4.11612C21.8505 3.8817 22.1685 3.75 22.5 3.75C26.1467 3.75 29.6441 5.19866 32.2227 7.77728C34.8013 10.3559 36.25 13.8533 36.25 17.5C36.25 17.8315 36.1183 18.1495 35.8839 18.3839C35.6495 18.6183 35.3315 18.75 35 18.75H22.5C22.1685 18.75 21.8505 18.6183 21.6161 18.3839C21.3817 18.1495 21.25 17.8315 21.25 17.5V5Z" fill="#43A4FF"/>
</g>
</svg>
