<svg width="40" height="40" viewBox="0 0 40 40" fill="none" xmlns="http://www.w3.org/2000/svg">
<g id="Frame">
<path id="Vector" fill-rule="evenodd" clip-rule="evenodd" d="M9.375 2.5C7.64833 2.5 6.25 3.9 6.25 5.625V34.375C6.25 36.1 7.65 37.5 9.375 37.5H30.625C32.35 37.5 33.75 36.1 33.75 34.375V21.25C33.75 19.5924 33.0915 18.0027 31.9194 16.8306C30.7473 15.6585 29.1576 15 27.5 15H24.375C23.5462 15 22.7513 14.6708 22.1653 14.0847C21.5792 13.4987 21.25 12.7038 21.25 11.875V8.75C21.25 7.0924 20.5915 5.50268 19.4194 4.33058C18.2473 3.15848 16.6576 2.5 15 2.5H9.375ZM12.5 25C12.5 24.6685 12.6317 24.3505 12.8661 24.1161C13.1005 23.8817 13.4185 23.75 13.75 23.75H26.25C26.5815 23.75 26.8995 23.8817 27.1339 24.1161C27.3683 24.3505 27.5 24.6685 27.5 25C27.5 25.3315 27.3683 25.6495 27.1339 25.8839C26.8995 26.1183 26.5815 26.25 26.25 26.25H13.75C13.4185 26.25 13.1005 26.1183 12.8661 25.8839C12.6317 25.6495 12.5 25.3315 12.5 25ZM13.75 28.75C13.4185 28.75 13.1005 28.8817 12.8661 29.1161C12.6317 29.3505 12.5 29.6685 12.5 30C12.5 30.3315 12.6317 30.6495 12.8661 30.8839C13.1005 31.1183 13.4185 31.25 13.75 31.25H20C20.3315 31.25 20.6495 31.1183 20.8839 30.8839C21.1183 30.6495 21.25 30.3315 21.25 30C21.25 29.6685 21.1183 29.3505 20.8839 29.1161C20.6495 28.8817 20.3315 28.75 20 28.75H13.75Z" fill="#43A4FF"/>
<path id="Vector_2" d="M21.6183 3.02667C22.9959 4.61495 23.7529 6.64758 23.75 8.75001V11.875C23.75 12.22 24.03 12.5 24.375 12.5H27.5C29.6024 12.4971 31.6351 13.2541 33.2233 14.6317C32.4901 11.8429 31.0292 9.29884 28.9902 7.25982C26.9512 5.2208 24.4072 3.75995 21.6183 3.02667Z" fill="#43A4FF"/>
</g>
</svg>
